{"title":"Batman.v.Superman.Dawn.of.Justice.2016.Ultimate.Edition.1080p.WE","uid":15127694,"size":6678889496,"categoryP":"video","categoryS":"hd___movies","magnet":"?xt=urn:btih:309fd95e605cdbe180d85b55cb6ae140e9839440&amp;dn=Batman.v.Superman.Dawn.of.Justice.2016.Ultimate.Edition.1080p.WE&amp;tr=udp%3A%2F%2Ftracker.leechers-paradise.org%3A6969&amp;tr=udp%3A%2F%2Fzer0day.ch%3A1337&amp;tr=udp%3A%2F%2Fopen.demonii.com%3A1337&amp;tr=udp%3A%2F%2Ftracker.coppersurfer.tk%3A6969&amp;tr=udp%3A%2F%2Fexodus.desync.com%3A6969","seeders":102,"leechers":15,"uploader":"makintos13","files":5,"time":1467127009,"description":"screens:\r\n \nhttps://imgmak.com/TBp\r\n \nhttps://imgmak.com/TBR\r\n \nhttps://imgmak.com/TBb\r\n \nhttps://imgmak.com/TBx\r\n\r\nBatman.v.Superman.Dawn.of.Justice.2016.Ultimate.Edition.1080p.WEB-DL.DD5.1.H264-RARBG\r\n\r\nMediainfo :\r\n\r\nVideo\r\nID : 1\r\nFormat : AVC\r\nFormat/Info : Advanced Video Codec\r\nFormat profile :   \r\nFormat settings, CABAC : Yes\r\nFormat settings, ReFrames : 5 frames\r\nCodec ID : V_MPEG4/ISO/AVC\r\nDuration : 3h 2mn\r\nBit rate : 4 397 Kbps\r\nWidth : 1 916 pixels\r\nHeight : 796 pixels\r\nDisplay aspect ratio : 2.40:1\r\nFrame rate mode : Constant\r\nFrame rate : 23.976 fps\r\nColor space : YUV\r\nChroma subsampling : 4:2:0\r\nBit depth : 8 bits\r\nScan type : Progressive\r\nBits/(Pixel*Frame) : 0.120\r\nStream size : 5.61 GiB (90%)\r\nTitle : Batman.v.Superman.Dawn.of.Justice.2016.Ultimate.Edition.1080p.WEB-DL.DD5.1.H264-RARBG\r\nLanguage : English\r\nDefault : Yes\r\nForced : No\r\nColor range : Limited\r\nColor primaries : BT.709\r\nTransfer characteristics : BT.709\r\nMatrix coefficients : BT.709\r\n\r\nAudio\r\nID : 2\r\nFormat : AC-3\r\nFormat/Info : Audio Coding 3\r\nMode extension : CM (complete main)\r\nFormat settings, Endianness : Big\r\nCodec ID : A_AC3\r\nDuration : 3h 2mn\r\nBit rate mode : Constant\r\nBit rate : 384 Kbps\r\nChannel(s) : 6 channels\r\nChannel positions : Front: L C R, Side: L R, LFE\r\nSampling rate : 48.0 KHz\r\nFrame rate : 31.250 fps (1536 spf)\r\nCompression mode : Lossy\r\nStream size : 501 MiB (8%)\r\nTitle : Batman.v.Superman.Dawn.of.Justice.2016.Ultimate.Edition.1080p.WEB-DL.DD5.1.H264-RARBG\r\nLanguage : English\r\nDefault : Yes\r\nForced : No\r\n\r\nText\r\nID : 3\r\nFormat : UTF-8\r\nCodec ID : S_TEXT/UTF8\r\nCodec ID/Info : UTF-8 Plain Text\r\nLanguage : English\r\nDefault : Yes\r\nForced : No\r\n\r\nMenu\r\n00:00:00.000 : en:1\r\n00:10:08.000 : en:2\r\n00:27:00.000 : en:3\r\n00:37:49.000 : en:4\r\n00:46:54.000 : en:5\r\n01:02:04.000 : en:6\r\n01:14:10.000 : en:7\r\n01:28:07.000 : en:8\r\n01:41:46.000 : en:9\r\n01:53:52.000 : en:10\r\n02:02:58.000 : en:11\r\n02:15:03.000 : en:12\r\n02:27:54.000 : en:13\r\n02:36:51.000 : en:14\r\n02:48:17.000 : en:15\r\n02:54:44.000 : en:16","torrent":{"xt":"urn:btih:309fd95e605cdbe180d85b55cb6ae140e9839440","amp;dn":"Batman.v.Superman.Dawn.of.Justice.2016.Ultimate.Edition.1080p.WE","amp;tr":["udp%3A%2F%2Ftracker.leechers-paradise.org%3A6969","udp%3A%2F%2Fzer0day.ch%3A1337","udp%3A%2F%2Fopen.demonii.com%3A1337","udp%3A%2F%2Ftracker.coppersurfer.tk%3A6969","udp%3A%2F%2Fexodus.desync.com%3A6969"],"infoHash":"309fd95e605cdbe180d85b55cb6ae140e9839440","infoHashBuffer":{"type":"Buffer","data":[48,159,217,94,96,92,219,225,128,216,91,85,203,106,225,64,233,131,148,64]},"announce":[],"urlList":[]}}